<svg xmlns="http://www.w3.org/2000/svg" x="0px" y="0px" viewBox="0 0 864 864" enable-background="new 0 0 864 864"><style>.ls0{fill:#262013}.ls1{fill:#420b00}.ls2{fill:#96633d}</style><g><g><path class="ls0" d="M262.5 270.7H322.2V288.4H262.5z"/><path class="ls0" d="M180.8 270.7H240.5V288.4H180.8z"/><path class="ls0" d="M284 291.2L273.1 612.4 290.8 612.4 301.7 291.2z"/><path class="ls1" d="M293.6 612.4L311.3 612.4 322.2 291.2 304.5 291.2z"/><path class="ls1" d="M201.3 291.2L212.2 612.4 229.9 612.4 219.1 291.2z"/><path class="ls0" d="M180.8 291.2L191.7 612.4 209.4 612.4 198.5 291.2z"/><path class="ls0" d="M261.9 435.3L253.1 495.1 270.1 610.2 273.4 512.7z"/><path class="ls0" d="M242.7 425L229.6 513 232.9 610.5 260.4 425z"/></g><path class="ls2" d="M180.2,636.6c-6.2-3.4-12.4-7.2-18.2-11.5c-10.6-7.9-20.5-16.8-29.7-26.3c-9.4-9.7-17.7-19.5-20.3-33.3	c-1.3-6.7-0.6-14,2.9-19.9c4.3-7.1,12.4-11.5,16.4-18.8c2.8-5.2,3.3-11.6,1.2-17.1c-1.5-3.9-4.6-7.6-8.8-8	c-3.9-0.3-7.4,2.3-10.2,5.1c-7.9,7.9-13.5,17.9-16.1,28.8c-0.9,3.7-1.4,7.6-0.7,11.3c-0.7-3.5-3.4-7.1-4.4-10.8	c-1.1-4.2-1.6-8.5-1.5-12.8c0.3-9.1,1.7-18,6.6-25.9c3.9-6.4,9.5-11.5,14.4-17.2c4.9-5.7,9.2-12.3,9.9-19.8	c0.4-4.2-0.6-8.8-3.8-11.5c-2.9-2.5-7.2-3-10.9-2c-3.7,1-6.9,3.4-9.7,6c-11.9,11.1-14.4,24.5-16.1,39.8c-2.8-10.7-3.5-22-2-33	c0.9-6.9,3-14.2,8.2-19.1c5.4-5.3,12-9.3,17.8-14.2c6.5-5.5,12.4-12.5,13.6-20.9c0.5-3.7,0.1-7.6-1.9-10.7	c-9-14.9-25.7,3.7-31.3,12.2c-4.6,7-7.8,14.9-10.8,22.7c0.8-10.7,2.3-21.5,5.6-31.7c1.5-4.6,2.9-10.2,6.8-13.4	c4.2-3.5,9.7-5.4,14.6-7.7c4.6-2.2,9.1-4.6,13.4-7.3c5.4-3.4,10.6-7.2,14.4-12.2c3.9-5,9.6-17.2,2.6-21.9	c-5.3-3.5-12.5,0.2-17.7,2.3c-8.6,3.6-16.6,8.7-23.4,15.2c1.8-5.1,3.5-10.2,6.2-14.8c6.4-11.1,17.6-14.7,28.7-19.6	c6.9-3.1,13.8-7,18-13.3c5.1-7.7,1.1-16.9-8.8-13.8c-13.1,4.1-24.5,13.4-31.3,25.4c9.6-25.2,34.8-40.9,54.2-57.8	c4.2-3.7,8.5-7.6,10.7-12.8c1.1-2.6,1.5-5.7,1-8.5c-0.5-2.7-1.8-5.2-4-6.8c-3.8-2.8-9.2-2.3-13.7-0.9c-13.8,4.3-23.5,17.4-29.5,29.9	c-7.3,15.1-14.9,30-23.1,44.7c2.9-5.2,3.5-13.8,4.7-19.7c1.6-7.4,2.3-15,2.4-22.5c0.1-2.9,0-5.9-0.8-8.7c-0.8-2.8-2.6-5.4-5.2-6.7	c-2.8-1.4-6.3-1-9.2,0.4c-2.8,1.4-5,3.9-6.8,6.5c-9.3,13.4-6,27.5-1.4,41.9c1.9,5.8,4,11.6,4.3,17.7c0.3,5.4-0.9,10.8-2.1,16.2	c-2.9,12.9-5.8,25.9-8.7,38.8c0.5-7.7-0.9-16.8-2.6-24.3c-1.8-7.8-5.1-15.4-10.3-21.5c-6.7-7.9-13.3-0.6-15.4,7.3	c-1.2,4.7-0.8,9.7,0.4,14.5c2.2,8.2,7,15.1,10.8,22.5c3.8,7.3,6.3,15.2,7.4,23.3c0.6,4.6,0.8,9.4,0.5,14c-0.2,3.1-2.3,8.8-1.4,11.7	c-3.2-9.7-5.4-19.2-10.6-28.1c-2.3-3.9-4.9-7.6-8.5-10.3c-3.6-2.7-8.3-4.2-12.6-3.2c-5.3,1.2-10.4,7.4-10.4,12.9	c0,7.5,5.8,14.2,10.7,19.3c7.8,8.1,16.4,15.6,22.4,25.1c10.1,15.9,7.9,35,12.1,52.8c-3.6-10-9-19.3-15.8-27.4	c-4.4-5.2-10.4-10.2-17.1-9.4c-6.2,0.8-10.9,6.8-11.6,13.1C23,479,44.1,483.8,56,492.1c7.1,4.9,12.9,11.6,16.9,19.2	c3.9,7.5,5.1,15.7,8.2,23.5c-1.5-3.8-7.4-6.9-10.7-9c-4.7-2.9-9.8-5.2-15.1-6.8c-3.4-1-6.9-1.7-10.3-1.3c-3.5,0.4-6.9,2.1-8.8,5.1	c-2.2,3.5-1.7,8.2,0.4,11.8c5.7,9.8,18.7,8.8,28.6,10.5c6,1,12,2.5,17,6c2.6,1.8,4.9,4.1,7.1,6.5c4.5,4.8,8.6,10,12.4,15.4	c1.6,2.3,3,4.7,4.5,7.2c0.6,1,2.8,6.3,3.6,6.7c-7.8-3.3-15.9-6.8-24.4-6.9c-6.7-0.1-15.9,3.7-21.1,7.9c-2.2,1.8-4.2,4-4.5,6.8	c-0.2,2,0.4,4,1.3,5.8c3.6,6.7,12,10.3,19.3,8.4c5-1.3,9.1-4.8,13.7-7c19.2-9,34,7.4,46.9,19.1c5.1,4.6,10.4,9,15.9,13.2	c6.3,4.8,12.7,9.3,19.4,13.1c3.8,2.1,8.5,4.4,10.4-0.5C188.3,641.8,184.6,639.1,180.2,636.6z"/><g><path class="ls0" d="M345.3 230.2H367V648.5H345.3z"/><path class="ls1" d="M370.5 230.2H392.2V648.5H370.5z"/><path transform="rotate(90 432.00005 445.40905)" class="ls0" d="M421.1 409.1H442.8V481.8H421.1z"/><path class="ls0" d="M471.8 230.2H493.5V648.5H471.8z"/><path class="ls1" d="M496.9 230.2H518.6V648.5H496.9z"/></g><g><path class="ls0" d="M541.8 270.9H559.5V612.3H541.8z"/><path class="ls1" d="M562.3 270.9H580V612.3H562.3z"/><path transform="rotate(90 612.4915 446.5122)" class="ls0" d="M603.6 416.8H621.3000000000001V476.1H603.6z"/><path class="ls0" d="M644.9 270.9H662.6V612.3H644.9z"/><path class="ls1" d="M665.5 270.9H683.2V612.3H665.5z"/></g><path class="ls2" d="M827.6,447.6c-6.7-0.8-12.7,4.2-17.1,9.4c-6.8,8.1-12.2,17.4-15.8,27.4c4.2-17.8,2-36.9,12.1-52.8	c6-9.5,14.6-17,22.4-25.1c4.9-5.1,10.8-11.8,10.7-19.3c0-5.4-5.1-11.7-10.4-12.9c-4.4-1-9,0.5-12.6,3.2c-3.6,2.7-6.2,6.4-8.5,10.3	c-5.3,8.9-7.5,18.4-10.6,28.1c0.9-2.9-1.2-8.6-1.4-11.7c-0.3-4.7-0.1-9.4,0.5-14c1.1-8.1,3.6-16.1,7.4-23.3	c3.9-7.4,8.7-14.3,10.8-22.5c1.3-4.7,1.6-9.7,0.4-14.5c-2-7.9-8.6-15.2-15.4-7.3c-5.2,6.1-8.5,13.7-10.3,21.5	c-1.7,7.5-3.1,16.6-2.6,24.3c-2.9-12.9-5.8-25.9-8.7-38.8c-1.2-5.3-2.4-10.7-2.1-16.2c0.3-6.1,2.4-11.9,4.3-17.7	c4.6-14.4,7.9-28.4-1.4-41.9c-1.8-2.6-4-5-6.8-6.5c-2.8-1.4-6.3-1.8-9.2-0.4c-2.6,1.3-4.4,3.9-5.2,6.7c-0.8,2.8-0.9,5.8-0.8,8.7	c0.2,7.5,0.9,15.2,2.4,22.5c1.3,5.9,1.8,14.5,4.7,19.7c-8.2-14.7-15.8-29.6-23.1-44.7c-6-12.5-15.8-25.6-29.5-29.9	c-4.5-1.5-9.8-1.9-13.7,0.9c-2.2,1.6-3.5,4.1-4,6.8c-0.5,2.8-0.1,5.8,1,8.5c2.1,5.2,6.5,9.1,10.7,12.8	c19.4,16.9,44.6,32.6,54.2,57.8c-6.7-12-18.2-21.2-31.3-25.4c-9.9-3.1-13.9,6.2-8.8,13.8c4.2,6.3,11.1,10.3,18,13.3	c11.1,4.9,22.2,8.5,28.7,19.6c2.7,4.6,4.5,9.7,6.2,14.8c-6.8-6.4-14.8-11.6-23.4-15.2c-5.1-2.1-12.3-5.8-17.7-2.3	c-7,4.7-1.3,16.9,2.6,21.9c3.9,5,9.1,8.9,14.4,12.2c4.3,2.7,8.8,5.1,13.4,7.3c4.9,2.3,10.4,4.3,14.6,7.7c3.9,3.1,5.3,8.7,6.8,13.4	c3.3,10.3,4.7,21,5.6,31.7c-3-7.9-6.2-15.7-10.8-22.7c-5.6-8.5-22.2-27-31.3-12.2c-1.9,3.2-2.4,7.1-1.9,10.7	c1.2,8.4,7.1,15.4,13.6,20.9c5.8,4.9,12.3,8.9,17.8,14.2c5.2,5,7.2,12.2,8.2,19.1c1.5,11,0.8,22.3-2,33	c-1.7-15.4-4.3-28.8-16.1-39.8c-2.8-2.6-6-5-9.7-6c-3.7-1-8-0.5-10.9,2c-3.2,2.7-4.2,7.3-3.8,11.5c0.7,7.5,5,14.1,9.9,19.8	c4.9,5.7,10.4,10.9,14.4,17.2c4.9,7.9,6.3,16.8,6.6,25.9c0.1,4.3-0.4,8.6-1.5,12.8c-0.9,3.6-3.7,7.3-4.4,10.8	c0.7-3.7,0.2-7.6-0.7-11.3c-2.6-10.8-8.2-20.9-16.1-28.8c-2.8-2.8-6.3-5.5-10.2-5.1c-4.2,0.4-7.3,4.1-8.8,8	c-2.1,5.5-1.6,11.9,1.2,17.1c4,7.3,12.1,11.6,16.4,18.8c3.5,5.9,4.2,13.2,2.9,19.9c-2.6,13.7-10.9,23.5-20.3,33.3	c-9.2,9.5-19.1,18.4-29.7,26.3c-5.8,4.4-12,8.1-18.2,11.5c-4.4,2.4-8.1,5.2-6.2,10.2c1.8,4.9,6.6,2.6,10.4,0.5	c6.7-3.8,13.1-8.3,19.4-13.1c5.5-4.2,10.8-8.6,15.9-13.2c12.9-11.7,27.7-28.1,46.9-19.1c4.7,2.2,8.8,5.7,13.7,7	c7.3,2,15.8-1.7,19.3-8.4c1-1.8,1.6-3.8,1.3-5.8c-0.3-2.8-2.3-5.1-4.5-6.8c-5.2-4.2-14.4-8-21.1-7.9c-8.5,0.1-16.6,3.5-24.4,6.9	c0.8-0.4,3-5.6,3.6-6.7c1.4-2.4,2.8-4.8,4.5-7.2c3.8-5.4,7.9-10.6,12.4-15.4c2.2-2.4,4.5-4.7,7.1-6.5c5-3.4,11-5,17-6	c9.9-1.7,22.9-0.7,28.6-10.5c2.1-3.6,2.5-8.3,0.4-11.8c-1.8-3-5.3-4.7-8.8-5.1c-3.5-0.4-7,0.3-10.3,1.3c-5.3,1.6-10.4,3.9-15.1,6.8	c-3.3,2-9.2,5.2-10.7,9c3.1-7.8,4.3-16.1,8.2-23.5c4-7.6,9.8-14.3,16.9-19.2c11.9-8.4,32.9-13.1,31.1-31.5	C838.5,454.4,833.8,448.4,827.6,447.6z"/></g></svg>